<svg width="18" height="22" viewBox="0 0 18 22" fill="none" xmlns="http://www.w3.org/2000/svg">
    <path d="M15 2H13.5C13.5 1.60218 13.342 1.22064 13.0607 0.93934C12.7794 0.658035 12.3978 0.5 12 0.5H6C5.60218 0.5 5.22064 0.658035 4.93934 0.93934C4.65804 1.22064 4.5 1.60218 4.5 2H3C2.40326 2 1.83097 2.23705 1.40901 2.65901C0.987053 3.08097 0.75 3.65326 0.75 4.25V19.25C0.75 19.8467 0.987053 20.419 1.40901 20.841C1.83097 21.2629 2.40326 21.5 3 21.5H15C15.5967 21.5 16.169 21.2629 16.591 20.841C17.0129 20.419 17.25 19.8467 17.25 19.25V4.25C17.25 3.65326 17.0129 3.08097 16.591 2.65901C16.169 2.23705 15.5967 2 15 2ZM6 2H12V3.5H6V2ZM15.75 19.25C15.75 19.4489 15.671 19.6397 15.5303 19.7803C15.3897 19.921 15.1989 20 15 20H3C2.80109 20 2.61032 19.921 2.46967 19.7803C2.32902 19.6397 2.25 19.4489 2.25 19.25V4.25C2.25 4.05109 2.32902 3.86032 2.46967 3.71967C2.61032 3.57902 2.80109 3.5 3 3.5H4.5C4.5 3.89782 4.65804 4.27936 4.93934 4.56066C5.22064 4.84196 5.60218 5 6 5H12C12.3978 5 12.7794 4.84196 13.0607 4.56066C13.342 4.27936 13.5 3.89782 13.5 3.5H15C15.1989 3.5 15.3897 3.57902 15.5303 3.71967C15.671 3.86032 15.75 4.05109 15.75 4.25V19.25Z" fill="#93989A"/>
</svg>
