<svg width="20" height="20" viewBox="0 0 20 20" fill="none" xmlns="http://www.w3.org/2000/svg">
    <path d="M14.0153 18.9293C14.0153 18.9293 9.00616 19.2294 7.84481 18.5931C6.00431 17.5846 5.26444 17.5846 2.68407 17.5846C1.78655 17.5846 1.00122 16.8003 1.00122 15.7918V10.4133C1.00122 9.5169 1.78655 8.73253 2.68407 8.73253H3.02064C3.02064 8.73253 3.80597 8.73253 4.14254 8.73253C7.73262 8.84458 8.63015 3.12994 8.63015 3.12994C9.41548 -0.00751646 11.8837 0.776847 12.3324 2.56968C12.5568 3.80225 12.5568 6.82765 12.5568 6.82765C12.5568 7.16381 12.7812 7.38791 13.1177 7.38791H17.0444C17.8297 7.38791 19.2882 8.06022 18.9516 10.4133L17.8297 15.7918C17.2688 18.2569 16.5108 18.9293 14.0153 18.9293Z" stroke="#93989A" stroke-width="1.7" stroke-linecap="round" stroke-linejoin="round"/>
</svg>
