<svg width="32" height="24" viewBox="0 0 32 24" fill="none" xmlns="http://www.w3.org/2000/svg">
    <path d="M8 2.40078C8 1.51716 8.71638 0.800781 9.6 0.800781H30.4C31.2836 0.800781 32 1.51716 32 2.40078C32 3.28441 31.2836 4.00078 30.4 4.00078H9.6C8.71638 4.00078 8 3.28434 8 2.40078ZM30.4 10.4008H1.6C0.716375 10.4008 0 11.1172 0 12.0008C0 12.8844 0.716375 13.6008 1.6 13.6008H30.4C31.2836 13.6008 32 12.8844 32 12.0008C32 11.1172 31.2836 10.4008 30.4 10.4008ZM30.4 20.0008H16C15.1164 20.0008 14.4 20.7171 14.4 21.6008C14.4 22.4843 15.1164 23.2008 16 23.2008H30.4C31.2836 23.2008 32 22.4843 32 21.6008C32 20.7171 31.2836 20.0008 30.4 20.0008Z" fill="#202226"/>
</svg>
