<svg width="20" height="20" viewBox="0 0 20 20" fill="none" xmlns="http://www.w3.org/2000/svg">
<path d="M16.6881 6.12633L7.18221 1.36155C0.781711 -1.8308 -1.83382 0.784736 1.36642 7.17733L2.78086 9.99829L1.36639 12.8192C-1.83386 19.2118 0.78956 21.8352 7.18216 18.635L16.6881 13.8859C20.9472 11.7445 20.9551 8.25983 16.6881 6.12633ZM12.6898 10.6304L6.66854 10.6462C6.43148 10.6462 6.22603 10.5514 6.0759 10.4013C5.92576 10.2511 5.83094 10.0457 5.83094 9.80862C5.83094 9.35031 6.21023 8.97102 6.66854 8.97102L12.6898 8.95519C13.1481 8.95519 13.5274 9.33448 13.5274 9.79279C13.5274 10.2511 13.1481 10.6304 12.6898 10.6304Z" fill="#388DEB"/>
</svg>
