<svg width="20" height="20" viewBox="0 0 20 20" fill="none" xmlns="http://www.w3.org/2000/svg">
    <path d="M14.0153 1.07074C14.0153 1.07074 9.00616 0.77056 7.84481 1.4069C6.00431 2.41537 5.26444 2.41537 2.68407 2.41537C1.78655 2.41537 1.00122 3.19973 1.00122 4.2082V9.58669C1.00122 10.4831 1.78655 11.2675 2.68407 11.2675H3.02064C3.02064 11.2675 3.80597 11.2675 4.14254 11.2675C7.73262 11.1554 8.63015 16.8701 8.63015 16.8701C9.41548 20.0075 11.8837 19.2232 12.3324 17.4303C12.5568 16.1978 12.5568 13.1724 12.5568 13.1724C12.5568 12.8362 12.7812 12.6121 13.1177 12.6121H17.0444C17.8297 12.6121 19.2882 11.9398 18.9516 9.58669L17.8297 4.2082C17.2688 1.74305 16.5108 1.07074 14.0153 1.07074Z" stroke="#93989A" stroke-width="1.7" stroke-linecap="round" stroke-linejoin="round"/>
</svg>
